# xmcd CD database file
#
# Track frame offsets:
#	150
#	17819
#	36053
#	59641
#	83933
#	98729
#	99800
#	113007
#	131520
#	143296
#
# Disc length: 2071 seconds
#
# Revision: 1
# Processed by: cddbd v1.5.2PL0 Copyright (c) Steve Scherf et al.
# Submitted via: CDex 1.51
#
DISCID=7408150a
DTITLE=Bluesm@il - ich will nur was mir zusteht
DYEAR=2004
DGENRE=Blues
TTITLE0=mensch Inge
TTITLE1=grosse stadt schöne lichter
TTITLE2=hey Chinasky
TTITLE3=reptil
TTITLE4=ich will nur was mir zusteht
TTITLE5=der schlagzeuger hat ein bedürfnis
TTITLE6=schwing deine hüften
TTITLE7=am ende strasse
TTITLE8=Lübeck-blues
TTITLE9=Mathilde
EXTD=YEAR: 2004
EXTT0=
EXTT1=
EXTT2=
EXTT3=
EXTT4=
EXTT5=
EXTT6=
EXTT7=
EXTT8=
EXTT9=
PLAYORDER=
